<svg width="256" height="256" viewBox="0 0 256 256" fill="none" xmlns="http://www.w3.org/2000/svg">
<rect width="256" height="256"/>
<path fill-rule="evenodd" clip-rule="evenodd" d="M43.6599 102.847L43.6928 102.869C44.9982 103.754 47.2351 104.787 50.5483 105.841C56.1851 107.634 64.0908 109.227 73.697 110.452C74.401 109.265 75.587 108.383 77.0187 108.097L77.0444 108.092L77.1062 108.08L77.3361 108.035C77.5358 107.996 77.8274 107.941 78.2048 107.87C78.9597 107.729 80.0582 107.529 81.4513 107.291C84.2366 106.813 88.2049 106.178 92.9632 105.544C102.458 104.278 115.196 103 127.998 103C140.801 103 153.54 104.278 163.035 105.544C167.794 106.178 171.763 106.813 174.548 107.291C175.941 107.529 177.04 107.729 177.795 107.87C178.172 107.94 178.464 107.996 178.664 108.035L178.894 108.08L178.973 108.095C180.405 108.382 181.599 109.264 182.303 110.452C191.909 109.227 199.815 107.634 205.452 105.841C208.53 104.862 210.68 103.9 212.016 103.059C211.124 102.449 209.834 101.727 208.084 100.933C203.518 98.8603 196.763 96.7081 188.431 94.7624C171.815 90.8825 149.696 88 127.998 88C101.233 88 79.1541 90.8969 63.902 94.7417C56.2434 96.6724 50.5116 98.7912 46.8125 100.783C45.331 101.58 44.3141 102.284 43.6599 102.847ZM222.235 99.6962C222.148 99.4261 222.051 99.1321 221.944 98.8156C221.339 97.0318 220.398 94.5271 219.03 91.5419C216.298 85.5794 211.835 77.6461 204.889 69.7075C190.883 53.6999 167.044 38 128.002 38C88.959 38 65.1191 53.6999 51.1123 69.7074C44.166 77.6459 39.7031 85.5793 36.9703 91.5417C35.6021 94.5269 34.6613 97.0316 34.0561 98.8154C34.0091 98.9539 33.9641 99.0882 33.9211 99.218C33.3674 100.325 33 101.59 33 103C33 106.967 35.8248 109.616 38.0816 111.146C40.54 112.813 43.8194 114.195 47.5171 115.371C54.0474 117.448 62.8029 119.167 72.9994 120.444V124.535L69.9777 123.402C62.0447 119.612 54.5946 124.182 51.2357 129.291C49.484 131.955 48.3298 135.419 48.9047 138.967C49.5278 142.813 52.0629 145.955 56.088 147.62L72.9994 154.385V178C72.9994 178.776 73.1801 179.542 73.5272 180.236C75.1369 183.456 77.5809 187.284 83.0255 190.495C87.5425 193.158 93.8623 195.243 102.999 196.533V208L102.999 208.02L102.999 208.04L103 208.083L103.002 208.176C103.004 208.24 103.007 208.312 103.012 208.389C103.023 208.543 103.04 208.722 103.069 208.922C103.126 209.321 103.228 209.812 103.412 210.362C103.784 211.48 104.478 212.8 105.713 214.036C108.232 216.554 112.228 218 117.999 218C123.769 218 127.766 216.554 130.284 214.036C131.52 212.8 132.213 211.48 132.586 210.362C132.769 209.812 132.872 209.321 132.929 208.922C132.957 208.722 132.975 208.543 132.985 208.389C132.99 208.312 132.993 208.24 132.995 208.176L132.998 208.083L132.998 208.04L132.998 208.02L132.998 208V197.955C134.722 197.924 136.388 197.876 137.998 197.812V208L137.998 208.02L137.998 208.04L137.999 208.083L138.001 208.176C138.002 208.199 138.003 208.224 138.004 208.249C138.006 208.293 138.009 208.34 138.012 208.389C138.022 208.543 138.04 208.722 138.068 208.922C138.125 209.321 138.228 209.812 138.411 210.362C138.784 211.48 139.477 212.8 140.713 214.036C143.231 216.554 147.227 218 152.998 218C158.769 218 162.765 216.554 165.283 214.036C166.519 212.8 167.213 211.48 167.585 210.362C167.768 209.812 167.871 209.321 167.928 208.922C167.957 208.722 167.974 208.543 167.984 208.389C167.986 208.362 167.988 208.336 167.989 208.311C167.992 208.263 167.994 208.218 167.995 208.176L167.997 208.083L167.998 208.04L167.998 208.02L167.998 208V193.316C177.526 190.042 183.001 184.85 183.001 178V120.444C193.197 119.167 201.953 117.448 208.483 115.371C212.181 114.195 215.46 112.813 217.918 111.146C220.175 109.616 223 106.967 223 103C223 101.765 222.698 100.664 222.235 99.6962ZM206.847 89.6668C204.508 85.5402 201.408 80.9152 197.364 76.2925C185.121 62.3001 163.961 48 128.002 48C92.0422 48 70.8814 62.3001 58.6378 76.2926C54.9419 80.5164 52.0347 84.742 49.7763 88.5877C53.2024 87.3279 57.1189 86.1388 61.4577 85.0451C77.6587 80.961 100.579 78 127.998 78C150.483 78 173.365 80.9754 190.704 85.0244C196.768 86.4403 202.249 88.0093 206.847 89.6668ZM173.001 117.171C172.954 117.163 172.906 117.155 172.859 117.147C170.175 116.687 166.331 116.072 161.714 115.456C152.458 114.222 140.196 113 127.998 113C115.801 113 103.54 114.222 94.2848 115.456C89.6683 116.072 85.8242 116.687 83.1409 117.147C83.0933 117.155 83.0461 117.163 82.9992 117.171V128.285L109.754 138.318C112.34 139.288 113.65 142.17 112.68 144.756C111.711 147.341 108.829 148.651 106.243 147.682L66.2439 132.682C66.0802 132.62 65.9198 132.55 65.7634 132.472C63.7926 131.487 61.2534 132.257 59.5912 134.785C58.8143 135.966 58.7042 136.926 58.7758 137.368L58.7785 137.386C58.8023 137.543 58.8622 137.94 59.8885 138.37L109.856 158.358C112.42 159.383 113.667 162.293 112.641 164.857C111.616 167.421 108.706 168.668 106.142 167.642L82.9992 158.385V176.765C83.9971 178.542 85.3565 180.26 88.1044 181.881C91.5884 183.935 97.6191 186.006 108.513 187.132C113.831 187.681 120.245 188 127.998 188C133.465 188 138.336 187.842 142.668 187.555C150.877 187.01 157.086 186.008 161.712 184.777C172.76 181.838 173.001 178.276 173.001 178V117.171ZM157.998 195.823C155.007 196.361 151.684 196.811 147.998 197.159V207.122C148.154 207.217 148.408 207.345 148.798 207.475C149.58 207.736 150.9 208 152.998 208C155.096 208 156.416 207.736 157.198 207.475C157.588 207.345 157.842 207.217 157.998 207.122V195.823ZM122.999 197.955C119.394 197.888 116.069 197.749 112.999 197.544V207.122C113.155 207.217 113.408 207.345 113.799 207.475C114.581 207.736 115.9 208 117.999 208C120.097 208 121.417 207.736 122.199 207.475C122.589 207.345 122.842 207.217 122.999 207.122V197.955ZM127.998 133C130.76 133 132.998 135.239 132.998 138V143C132.998 145.761 130.76 148 127.998 148C125.237 148 122.999 145.761 122.999 143V138C122.999 135.239 125.237 133 127.998 133ZM157.998 133C160.759 133 162.998 135.239 162.998 138V143C162.998 145.761 160.759 148 157.998 148C155.237 148 152.998 145.761 152.998 143V138C152.998 135.239 155.237 133 157.998 133Z" fill="url(#paint0_linear_601_27)"/>
<path d="M137.998 162.948C137.97 160.21 135.742 158 132.998 158C130.237 158 127.998 160.239 127.998 163L128.004 163.279C128.008 163.411 128.016 163.582 128.031 163.786C128.06 164.192 128.115 164.74 128.223 165.384C128.434 166.649 128.865 168.412 129.776 170.236C130.698 172.079 132.159 174.074 134.444 175.598C136.76 177.142 139.623 178 142.998 178C146.373 178 149.237 177.142 151.553 175.598C153.838 174.074 155.299 172.079 156.22 170.236C157.132 168.412 157.563 166.649 157.774 165.384C157.881 164.74 157.937 164.192 157.966 163.786C157.98 163.582 157.988 163.411 157.993 163.279L157.997 163.109L157.998 163.047L157.998 163.022L157.998 163.01L157.998 163C157.998 160.239 155.759 158 152.998 158C150.253 158 148.025 160.21 147.999 162.948L147.998 162.968L147.998 162.982L147.998 162.995L147.999 162.948L147.991 163.073C147.981 163.214 147.959 163.447 147.91 163.741C147.808 164.351 147.614 165.088 147.276 165.764C146.948 166.421 146.534 166.926 146.006 167.277C145.51 167.608 144.623 168 142.998 168C141.373 168 140.487 167.608 139.991 167.277C139.463 166.926 139.049 166.421 138.72 165.764C138.382 165.088 138.188 164.351 138.087 163.741C138.038 163.447 138.015 163.214 138.005 163.073C138 163.007 137.998 162.948 137.998 162.948Z" fill="url(#paint1_linear_601_27)"/>
<defs>
<linearGradient id="paint0_linear_601_27" x1="33" y1="38" x2="223" y2="218" gradientUnits="userSpaceOnUse">
<stop stop-color="#FFBF4C"/>
<stop offset="1" stop-color="#DD6F1F"/>
</linearGradient>
<linearGradient id="paint1_linear_601_27" x1="33" y1="38" x2="223" y2="218" gradientUnits="userSpaceOnUse">
<stop stop-color="#FFBF4C"/>
<stop offset="1" stop-color="#DD6F1F"/>
</linearGradient>
</defs>
</svg>
