<svg width="48" height="48" viewBox="0 0 48 48" fill="none" xmlns="http://www.w3.org/2000/svg">
<path fill-rule="evenodd" clip-rule="evenodd" d="M12 4H36C38.2 4 40 5.8 40 8V40C40 42.2 38.2 44 36 44H12C9.8 44 8 42.2 8 40V8C8 5.8 9.8 4 12 4ZM18 8H22V18L21.2 17.4C20.4889 16.8667 19.5111 16.8667 18.8 17.4L18 18V8ZM12 40H36V8H26V22C26 22.7575 25.572 23.4501 24.8944 23.7889C24.2169 24.1276 23.406 24.0545 22.8 23.6L20 21.5L17.2 23.6C16.594 24.0545 15.7831 24.1276 15.1056 23.7889C14.428 23.4501 14 22.7575 14 22V8H12V40Z" fill="black"/>
</svg>
