<svg width="24" height="24" viewBox="0 0 24 24" fill="none" xmlns="http://www.w3.org/2000/svg">
<path d="M0.504032 2.92675C0.344271 2.7675 0.217508 2.57826 0.131016 2.3699C0.0445232 2.16154 0 1.93814 0 1.71253C0 1.48692 0.0445232 1.26353 0.131016 1.05516C0.217508 0.846802 0.344271 0.657568 0.504032 0.498312C0.827417 0.179026 1.26351 1.90735e-06 1.71789 1.90735e-06C2.17227 1.90735e-06 2.60837 0.179026 2.93175 0.498312L12 9.56925L21.0682 0.498312C21.3916 0.179026 21.8277 1.90735e-06 22.2821 1.90735e-06C22.7365 1.90735e-06 23.1726 0.179026 23.496 0.498312C23.6557 0.657568 23.7825 0.846802 23.869 1.05516C23.9555 1.26353 24 1.48692 24 1.71253C24 1.93814 23.9555 2.16154 23.869 2.3699C23.7825 2.57826 23.6557 2.7675 23.496 2.92675L14.4277 11.9977L23.496 21.0686C23.8179 21.3906 23.9988 21.8274 23.9988 22.2828C23.9988 22.5083 23.9544 22.7316 23.8681 22.94C23.7818 23.1483 23.6554 23.3376 23.496 23.4971C23.3366 23.6565 23.1473 23.783 22.939 23.8693C22.7308 23.9556 22.5075 24 22.2821 24C21.8268 24 21.3902 23.8191 21.0682 23.4971L12 14.4261L2.93175 23.4971C2.60982 23.8191 2.17318 24 1.71789 24C1.26261 24 0.825968 23.8191 0.504032 23.4971C0.182096 23.175 0.00123596 22.7383 0.00123596 22.2828C0.00123596 21.8274 0.182096 21.3906 0.504032 21.0686L9.57228 11.9977L0.504032 2.92675Z" fill="black"/>
</svg>
