<svg width="24" height="24" viewBox="0 0 24 24" fill="none" xmlns="http://www.w3.org/2000/svg">
<path fill-rule="evenodd" clip-rule="evenodd" d="M22.6468 4.26462C22.9974 4.3347 23.2498 4.64253 23.2498 5.00007V19.0001C23.2498 19.4143 22.914 19.7501 22.4998 19.7501C22.0856 19.7501 21.7498 19.4143 21.7498 19.0001V14.7501H20.9998C20.7983 14.7501 20.6053 14.669 20.4643 14.5251C20.3232 14.3812 20.246 14.1867 20.25 13.9852C20.3115 10.8793 20.4764 9.07928 20.7452 7.78606C20.9776 6.66786 21.2885 5.93611 21.6298 5.13265C21.6882 4.99522 21.7475 4.85568 21.8074 4.71176C21.9449 4.38169 22.2962 4.19454 22.6468 4.26462ZM1.5 4.25007C1.91421 4.25007 2.25 4.58586 2.25 5.00007V7.53657L2.74981 7.7865V5.00007C2.74981 4.58586 3.0856 4.25007 3.49981 4.25007C3.91402 4.25007 4.24981 4.58586 4.24981 5.00007V7.78655L4.74981 7.53655V5.00007C4.74981 4.58586 5.0856 4.25007 5.49981 4.25007C5.91402 4.25007 6.24981 4.58586 6.24981 5.00007V8.00007C6.24981 8.28415 6.08931 8.54385 5.83522 8.67089L4.24981 9.4636V19.0001C4.24981 19.4143 3.91402 19.7501 3.49981 19.7501C3.0856 19.7501 2.74981 19.4143 2.74981 19.0001V9.46358L1.16456 8.67088C0.91049 8.54383 0.75 8.28414 0.75 8.00007V5.00007C0.75 4.58586 1.08579 4.25007 1.5 4.25007ZM12.4998 6.75007C9.32417 6.75007 6.74981 9.32444 6.74981 12.5001C6.74981 15.6757 9.32417 18.2501 12.4998 18.2501C15.6754 18.2501 18.2498 15.6757 18.2498 12.5001C18.2498 9.32444 15.6754 6.75007 12.4998 6.75007ZM5.24981 12.5001C5.24981 8.49601 8.49575 5.25007 12.4998 5.25007C16.5039 5.25007 19.7498 8.49601 19.7498 12.5001C19.7498 16.5041 16.5039 19.7501 12.4998 19.7501C8.49575 19.7501 5.24981 16.5041 5.24981 12.5001ZM16.5305 9.96976C16.8234 10.2627 16.8234 10.7375 16.5305 11.0304L12.0303 15.5304C11.8897 15.6711 11.6989 15.7501 11.5 15.7501C11.3011 15.7501 11.1103 15.671 10.9696 15.5304L8.96983 13.5304C8.67696 13.2375 8.67698 12.7626 8.96988 12.4697C9.26279 12.1768 9.73767 12.1769 10.0305 12.4698L11.5 13.9394L15.4699 9.96973C15.7628 9.67685 16.2376 9.67686 16.5305 9.96976Z" fill="black"/>
</svg>
