<svg width="24" height="24" viewBox="0 0 24 24" fill="none" xmlns="http://www.w3.org/2000/svg">
<path fill-rule="evenodd" clip-rule="evenodd" d="M12 3C7.02944 3 3 7.02944 3 12C3 16.9706 7.02944 21 12 21C16.9706 21 21 16.9706 21 12C21 7.02944 16.9706 3 12 3ZM1 12C1 5.92487 5.92487 1 12 1C18.0751 1 23 5.92487 23 12C23 18.0751 18.0751 23 12 23C5.92487 23 1 18.0751 1 12ZM10.6061 7.23343C10.2465 7.70254 10.0487 8.29037 9.98639 8.6644C9.8956 9.20917 9.38037 9.57719 8.8356 9.48639C8.29083 9.3956 7.92281 8.88037 8.01361 8.3356C8.11793 7.70963 8.42021 6.79746 9.01889 6.01657C9.6368 5.2106 10.6144 4.5 12 4.5C13.1541 4.5 14.2034 4.78921 14.9571 5.54289C15.7108 6.29657 16 7.34586 16 8.5C16 9.25674 15.715 9.90961 15.3849 10.4506C15.0988 10.9194 14.7312 11.3767 14.4047 11.7829C14.3626 11.8352 14.3213 11.8867 14.2809 11.9372C13.5054 12.9065 13 13.6474 13 14.5C13 15.0523 12.5523 15.5 12 15.5C11.4477 15.5 11 15.0523 11 14.5C11 12.8526 11.9946 11.5935 12.7191 10.6878C12.7613 10.6351 12.8026 10.5837 12.843 10.5332C13.1827 10.1098 13.4635 9.75966 13.6776 9.40882C13.91 9.02789 14 8.74326 14 8.5C14 7.65414 13.7892 7.20343 13.5429 6.95711C13.2966 6.71079 12.8459 6.5 12 6.5C11.3856 6.5 10.9465 6.7894 10.6061 7.23343ZM12 17C12.5523 17 13 17.4477 13 18V18.5C13 19.0523 12.5523 19.5 12 19.5C11.4477 19.5 11 19.0523 11 18.5V18C11 17.4477 11.4477 17 12 17Z" fill="black"/>
</svg>
