<svg width="48" height="48" viewBox="0 0 48 48" fill="none" xmlns="http://www.w3.org/2000/svg">
<path fill-rule="evenodd" clip-rule="evenodd" d="M4 36C4 39.2899 6.71006 42 10 42H38C41.2899 42 44 39.2899 44 36V16C44 14.8954 43.1046 14 42 14C40.8954 14 40 14.8954 40 16V36C40 37.1301 39.1301 38 38 38C36.8699 38 36 37.1301 36 36V10C36 7.79086 34.2091 6 32 6H8C5.79086 6 4 7.79086 4 10V36ZM32 10H8V36C8 37.1301 8.86994 38 10 38H32.832C32.558 37.316 32 36.7767 32 36V10Z" fill="black"/>
<path d="M26 18H14C12.8954 18 12 17.1046 12 16C12 14.8954 12.8954 14 14 14H26C27.1046 14 28 14.8954 28 16C28 17.1046 27.1046 18 26 18Z" fill="black"/>
<path d="M26 26H14C12.8954 26 12 25.1046 12 24C12 22.8954 12.8954 22 14 22H26C27.1046 22 28 22.8954 28 24C28 25.1046 27.1046 26 26 26Z" fill="black"/>
<path d="M26 34H14C12.8954 34 12 33.1046 12 32C12 30.8954 12.8954 30 14 30H26C27.1046 30 28 30.8954 28 32C28 33.1046 27.1046 34 26 34Z" fill="black"/>
</svg>
