<svg width="24" height="24" viewBox="0 0 24 24" fill="none" xmlns="http://www.w3.org/2000/svg">
<path fill-rule="evenodd" clip-rule="evenodd" d="M22.0303 3.03033C22.3232 2.73744 22.3232 2.26256 22.0303 1.96967C21.7374 1.67678 21.2626 1.67678 20.9697 1.96967L18.75 4.18934V3C18.75 2.58579 18.4142 2.25 18 2.25L7.99844 2.25L7.95255 2.2509C7.92906 2.25169 7.89807 2.25314 7.86063 2.25581C7.786 2.26114 7.68429 2.27144 7.5642 2.29145C7.32758 2.33089 7.00063 2.41116 6.66459 2.57918C6.32562 2.74867 5.96383 3.01467 5.68846 3.42772C5.40996 3.84547 5.25 4.36876 5.25 5V17.6893L1.96967 20.9697C1.67678 21.2626 1.67678 21.7374 1.96967 22.0303C2.26256 22.3232 2.73744 22.3232 3.03033 22.0303L22.0303 3.03033ZM17.25 3.75V5.68934L13.25 9.68934L11.5607 8L14.0303 5.53033C14.3232 5.23744 14.3232 4.76256 14.0303 4.46967C13.7374 4.17678 13.2626 4.17678 12.9697 4.46967L11.25 6.18934V5C11.25 4.58579 10.9142 4.25 10.5 4.25C10.0858 4.25 9.75 4.58579 9.75 5V11C9.75 11.4142 10.0858 11.75 10.5 11.75C10.9142 11.75 11.25 11.4142 11.25 11V9.81066L12.1893 10.75L8.75 14.1893V3.75H17.25ZM7.25 3.96759V15.6893L6.75 16.1893V5C6.75 4.63124 6.84004 4.40453 6.93654 4.25978C7.01807 4.13748 7.12544 4.04227 7.25 3.96759Z" fill="black"/>
<path d="M17.25 10V16.25H11C10.5858 16.25 10.25 16.5858 10.25 17C10.25 17.4142 10.5858 17.75 11 17.75H16.75V20.25L8.00428 20.25C8.00044 20.2499 7.99168 20.2496 7.97861 20.2487C7.9523 20.2471 7.90961 20.2435 7.85537 20.2358C7.74467 20.2201 7.5983 20.189 7.44914 20.1299C7.06406 19.9773 6.62819 20.1658 6.47559 20.5509C6.323 20.9359 6.51147 21.3718 6.89656 21.5244C7.1836 21.6381 7.45081 21.6935 7.64463 21.721C7.74266 21.7349 7.82496 21.7421 7.88559 21.7459C7.91599 21.7477 7.94117 21.7488 7.96042 21.7493L8 21.75H18C18.4142 21.75 18.75 21.4142 18.75 21C18.75 20.6734 18.5413 20.3956 18.25 20.2927V17.7073C18.5413 17.6044 18.75 17.3266 18.75 17V10C18.75 9.58579 18.4142 9.25 18 9.25C17.5858 9.25 17.25 9.58579 17.25 10Z" fill="black"/>
</svg>
