<svg width="24" height="24" viewBox="0 0 24 24" fill="none" xmlns="http://www.w3.org/2000/svg">
<path fill-rule="evenodd" clip-rule="evenodd" d="M22.6468 4.26462C22.9974 4.3347 23.2498 4.64253 23.2498 5.00007V19.0001C23.2498 19.4143 22.914 19.7501 22.4998 19.7501C22.0856 19.7501 21.7498 19.4143 21.7498 19.0001V14.7501H20.9998C20.7983 14.7501 20.6053 14.669 20.4643 14.5251C20.3232 14.3812 20.246 14.1867 20.25 13.9852C20.3115 10.8793 20.4764 9.07928 20.7452 7.78606C20.9776 6.66786 21.2885 5.93611 21.6298 5.13265C21.6882 4.99522 21.7475 4.85568 21.8074 4.71176C21.9449 4.38169 22.2962 4.19454 22.6468 4.26462ZM1.5 4.25007C1.91421 4.25007 2.25 4.58586 2.25 5.00007V7.53657L2.74981 7.7865V5.00007C2.74981 4.58586 3.0856 4.25007 3.49981 4.25007C3.91402 4.25007 4.24981 4.58586 4.24981 5.00007V7.78655L4.74981 7.53655V5.00007C4.74981 4.58586 5.0856 4.25007 5.49981 4.25007C5.91402 4.25007 6.24981 4.58586 6.24981 5.00007V8.00007C6.24981 8.28415 6.08931 8.54385 5.83522 8.67089L4.24981 9.4636V19.0001C4.24981 19.4143 3.91402 19.7501 3.49981 19.7501C3.0856 19.7501 2.74981 19.4143 2.74981 19.0001V9.46358L1.16456 8.67088C0.91049 8.54383 0.75 8.28414 0.75 8.00007V5.00007C0.75 4.58586 1.08579 4.25007 1.5 4.25007ZM9.33697 8.75007H7.25C6.14543 8.75007 5.25 9.6455 5.25 10.7501C5.25 11.8546 6.14543 12.7501 7.25 12.7501V16.0001C7.25 18.0711 8.92893 19.7501 11 19.7501H14C16.0711 19.7501 17.75 18.0711 17.75 16.0001V12.7501C18.8546 12.7501 19.75 11.8546 19.75 10.7501C19.75 9.6455 18.8546 8.75007 17.75 8.75007H15.663C15.3245 7.31672 14.0368 6.25007 12.5 6.25007C10.9632 6.25007 9.67555 7.31672 9.33697 8.75007ZM10.9184 8.75007H14.0816C13.8007 8.15884 13.1981 7.75007 12.5 7.75007C11.8019 7.75007 11.1993 8.15884 10.9184 8.75007ZM16.25 12.7501H8.75V16.0001C8.75 17.2427 9.75736 18.2501 11 18.2501H14C15.2426 18.2501 16.25 17.2427 16.25 16.0001V12.7501ZM7.25 10.2501C6.97386 10.2501 6.75 10.4739 6.75 10.7501C6.75 11.0262 6.97386 11.2501 7.25 11.2501H17.75C18.0261 11.2501 18.25 11.0262 18.25 10.7501C18.25 10.4739 18.0261 10.2501 17.75 10.2501H7.25Z" fill="black"/>
</svg>
