<svg width="24" height="24" viewBox="0 0 24 24" fill="none" xmlns="http://www.w3.org/2000/svg">
<path fill-rule="evenodd" clip-rule="evenodd" d="M8 2.25H18C18.4142 2.25 18.75 2.58579 18.75 3V17C18.75 17.3266 18.5413 17.6044 18.25 17.7073V20.2927C18.5413 20.3956 18.75 20.6734 18.75 21C18.75 21.4142 18.4142 21.75 18 21.75H8L7.95255 21.7491C7.92906 21.7483 7.89807 21.7469 7.86063 21.7442C7.786 21.7389 7.68429 21.7286 7.5642 21.7085C7.32758 21.6691 7.00063 21.5888 6.66459 21.4208C6.32562 21.2513 5.96383 20.9853 5.68846 20.5723C5.40996 20.1545 5.25 19.6312 5.25 19V5C5.25 4.36876 5.40996 3.84547 5.68846 3.42772C5.96383 3.01467 6.32562 2.74867 6.66459 2.57918C7.00063 2.41116 7.32758 2.33089 7.5642 2.29145C7.68429 2.27144 7.786 2.26114 7.86063 2.25581C7.89807 2.25314 7.92906 2.25169 7.95255 2.2509L8 2.25ZM6.75 16.5382V5C6.75 4.63124 6.84004 4.40453 6.93654 4.25978C7.01807 4.13748 7.12544 4.04227 7.25 3.96759V16.3593C7.09551 16.4004 6.92495 16.4578 6.75 16.5382ZM8.75 16.25V3.75H17.25V16.25H8.75ZM16.75 17.75H8.00486L8.00253 17.7501C7.99672 17.7503 7.98474 17.7508 7.9675 17.752C7.93275 17.7545 7.87821 17.7598 7.8108 17.771C7.67242 17.7941 7.49937 17.8388 7.33541 17.9208C7.17438 18.0013 7.03617 18.1103 6.93654 18.2598C6.84004 18.4045 6.75 18.6312 6.75 19C6.75 19.3688 6.84004 19.5955 6.93654 19.7402C7.03617 19.8897 7.17438 19.9987 7.33541 20.0792C7.49937 20.1612 7.67242 20.2059 7.8108 20.229C7.87821 20.2402 7.93275 20.2455 7.9675 20.248C7.98474 20.2492 8.00636 20.25 8.00253 20.2499L8.00636 20.25L8.00488 20.25H16.75V17.75ZM10.5 4.25C10.9142 4.25 11.25 4.58579 11.25 5V6.18934L12.9697 4.46967C13.2626 4.17678 13.7374 4.17678 14.0303 4.46967C14.3232 4.76256 14.3232 5.23744 14.0303 5.53033L11.5607 8L14.0303 10.4697C14.3232 10.7626 14.3232 11.2374 14.0303 11.5303C13.7374 11.8232 13.2626 11.8232 12.9697 11.5303L11.25 9.81066V11C11.25 11.4142 10.9142 11.75 10.5 11.75C10.0858 11.75 9.75 11.4142 9.75 11V5C9.75 4.58579 10.0858 4.25 10.5 4.25Z" fill="black"/>
</svg>
