<svg width="48" height="48" viewBox="0 0 48 48" fill="none" xmlns="http://www.w3.org/2000/svg">
<path d="M38.8602 25.96C38.9402 25.32 39.0002 24.68 39.0002 24C39.0002 23.32 38.9402 22.68 38.8602 22.04L43.0802 18.74C43.4602 18.44 43.5602 17.9 43.3202 17.46L39.3202 10.54C39.1402 10.22 38.8002 10.04 38.4402 10.04C38.3202 10.04 38.2002 10.06 38.1002 10.1L33.1202 12.1C32.0802 11.3 30.9602 10.64 29.7402 10.14L28.9802 4.84C28.9202 4.36 28.5002 4 28.0002 4H20.0002C19.5002 4 19.0802 4.36 19.0202 4.84L18.2602 10.14C17.0402 10.64 15.9202 11.32 14.8802 12.1L9.90017 10.1C9.78017 10.06 9.66017 10.04 9.54017 10.04C9.20017 10.04 8.86017 10.22 8.68017 10.54L4.68017 17.46C4.42017 17.9 4.54017 18.44 4.92017 18.74L9.14017 22.04C9.06017 22.68 9.00017 23.34 9.00017 24C9.00017 24.66 9.06017 25.32 9.14017 25.96L4.92017 29.26C4.54017 29.56 4.44017 30.1 4.68017 30.54L8.68017 37.46C8.86017 37.78 9.20017 37.96 9.56017 37.96C9.68017 37.96 9.80017 37.94 9.90017 37.9L14.8802 35.9C15.9202 36.7 17.0402 37.36 18.2602 37.86L19.0202 43.16C19.0802 43.64 19.5002 44 20.0002 44H28.0002C28.5002 44 28.9202 43.64 28.9802 43.16L29.7402 37.86C30.9602 37.36 32.0802 36.68 33.1202 35.9L38.1002 37.9C38.2202 37.94 38.3402 37.96 38.4602 37.96C38.8002 37.96 39.1402 37.78 39.3202 37.46L43.3202 30.54C43.5602 30.1 43.4602 29.56 43.0802 29.26L38.8602 25.96ZM34.9002 22.54C34.9802 23.16 35.0002 23.58 35.0002 24C35.0002 24.42 34.9602 24.86 34.9002 25.46L34.6202 27.72L36.4002 29.12L38.5602 30.8L37.1602 33.22L34.6202 32.2L32.5402 31.36L30.7402 32.72C29.8802 33.36 29.0602 33.84 28.2402 34.18L26.1202 35.04L25.8002 37.3L25.4002 40H22.6002L22.2202 37.3L21.9002 35.04L19.7802 34.18C18.9202 33.82 18.1202 33.36 17.3202 32.76L15.5002 31.36L13.3802 32.22L10.8402 33.24L9.44017 30.82L11.6002 29.14L13.3802 27.74L13.1002 25.48C13.0402 24.86 13.0002 24.4 13.0002 24C13.0002 23.6 13.0402 23.14 13.1002 22.54L13.3802 20.28L11.6002 18.88L9.44017 17.2L10.8402 14.78L13.3802 15.8L15.4602 16.64L17.2602 15.28C18.1202 14.64 18.9402 14.16 19.7602 13.82L21.8802 12.96L22.2002 10.7L22.6002 8H25.3802L25.7602 10.7L26.0802 12.96L28.2002 13.82C29.0602 14.18 29.8602 14.64 30.6602 15.24L32.4802 16.64L34.6002 15.78L37.1402 14.76L38.5402 17.18L36.4002 18.88L34.6202 20.28L34.9002 22.54ZM24.0002 16C19.5802 16 16.0002 19.58 16.0002 24C16.0002 28.42 19.5802 32 24.0002 32C28.4202 32 32.0002 28.42 32.0002 24C32.0002 19.58 28.4202 16 24.0002 16ZM24.0002 28C21.8002 28 20.0002 26.2 20.0002 24C20.0002 21.8 21.8002 20 24.0002 20C26.2002 20 28.0002 21.8 28.0002 24C28.0002 26.2 26.2002 28 24.0002 28Z" fill="black"/>
</svg>
